<svg width="284" height="208" viewBox="0 0 284 208" fill="none" xmlns="http://www.w3.org/2000/svg">
<path d="M18.7686 176.563C17.6429 176.24 16.8226 175.843 16.3076 175.374C15.7972 174.9 15.542 174.317 15.542 173.624C15.542 172.84 15.8542 172.193 16.4785 171.683C17.1074 171.168 17.9232 170.91 18.9258 170.91C19.6094 170.91 20.2178 171.042 20.751 171.307C21.2887 171.571 21.7035 171.936 21.9951 172.4C22.2913 172.865 22.4395 173.373 22.4395 173.925H21.1201C21.1201 173.323 20.9287 172.852 20.5459 172.51C20.1631 172.163 19.623 171.99 18.9258 171.99C18.2786 171.99 17.7728 172.134 17.4082 172.421C17.0482 172.703 16.8682 173.098 16.8682 173.604C16.8682 174.009 17.0391 174.353 17.3809 174.636C17.7272 174.914 18.3128 175.169 19.1377 175.401C19.9671 175.634 20.6143 175.891 21.0791 176.174C21.5485 176.452 21.8949 176.778 22.1182 177.151C22.346 177.525 22.46 177.965 22.46 178.471C22.46 179.277 22.1455 179.924 21.5166 180.412C20.8877 180.895 20.0469 181.137 18.9941 181.137C18.3105 181.137 17.6725 181.007 17.0801 180.747C16.4876 180.483 16.0296 180.123 15.7061 179.667C15.387 179.211 15.2275 178.694 15.2275 178.115H16.5469C16.5469 178.717 16.7679 179.193 17.21 179.544C17.6566 179.89 18.2513 180.063 18.9941 180.063C19.6868 180.063 20.2178 179.922 20.5869 179.64C20.9561 179.357 21.1406 178.972 21.1406 178.484C21.1406 177.997 20.9697 177.621 20.6279 177.356C20.2861 177.088 19.6663 176.823 18.7686 176.563ZM27.0195 181.137C26.0169 181.137 25.2012 180.809 24.5723 180.152C23.9434 179.492 23.6289 178.61 23.6289 177.507V177.274C23.6289 176.541 23.7679 175.887 24.0459 175.312C24.3285 174.734 24.7204 174.283 25.2217 173.959C25.7275 173.631 26.2744 173.467 26.8623 173.467C27.8239 173.467 28.5713 173.784 29.1045 174.417C29.6377 175.05 29.9043 175.957 29.9043 177.138V177.664H24.8936C24.9118 178.393 25.1237 178.983 25.5293 179.435C25.9395 179.881 26.459 180.104 27.0879 180.104C27.5345 180.104 27.9128 180.013 28.2227 179.831C28.5326 179.649 28.8037 179.407 29.0361 179.106L29.8086 179.708C29.1888 180.66 28.2591 181.137 27.0195 181.137ZM26.8623 174.506C26.3519 174.506 25.9235 174.693 25.5771 175.066C25.2308 175.436 25.0166 175.955 24.9346 176.625H28.6396V176.529C28.6032 175.887 28.43 175.39 28.1201 175.039C27.8102 174.684 27.391 174.506 26.8623 174.506ZM32.748 181H31.4834V170.5H32.748V181ZM37.8477 181.137C36.8451 181.137 36.0293 180.809 35.4004 180.152C34.7715 179.492 34.457 178.61 34.457 177.507V177.274C34.457 176.541 34.596 175.887 34.874 175.312C35.1566 174.734 35.5485 174.283 36.0498 173.959C36.5557 173.631 37.1025 173.467 37.6904 173.467C38.652 173.467 39.3994 173.784 39.9326 174.417C40.4658 175.05 40.7324 175.957 40.7324 177.138V177.664H35.7217C35.7399 178.393 35.9518 178.983 36.3574 179.435C36.7676 179.881 37.2871 180.104 37.916 180.104C38.3626 180.104 38.7409 180.013 39.0508 179.831C39.3607 179.649 39.6318 179.407 39.8643 179.106L40.6367 179.708C40.0169 180.66 39.0872 181.137 37.8477 181.137ZM37.6904 174.506C37.18 174.506 36.7516 174.693 36.4053 175.066C36.0589 175.436 35.8447 175.955 35.7627 176.625H39.4678V176.529C39.4313 175.887 39.2581 175.39 38.9482 175.039C38.6383 174.684 38.2191 174.506 37.6904 174.506ZM45.1689 180.104C45.6201 180.104 46.0143 179.968 46.3516 179.694C46.6888 179.421 46.8757 179.079 46.9121 178.669H48.1084C48.0856 179.093 47.9398 179.496 47.6709 179.879C47.402 180.262 47.042 180.567 46.5908 180.795C46.1442 181.023 45.6702 181.137 45.1689 181.137C44.1618 181.137 43.3597 180.802 42.7627 180.132C42.1702 179.457 41.874 178.537 41.874 177.37V177.158C41.874 176.438 42.0062 175.798 42.2705 175.237C42.5348 174.677 42.9131 174.242 43.4053 173.932C43.902 173.622 44.4876 173.467 45.1621 173.467C45.9915 173.467 46.6797 173.715 47.2266 174.212C47.778 174.709 48.0719 175.354 48.1084 176.146H46.9121C46.8757 175.668 46.6934 175.276 46.3652 174.971C46.0417 174.661 45.6406 174.506 45.1621 174.506C44.5195 174.506 44.0205 174.738 43.665 175.203C43.3141 175.663 43.1387 176.331 43.1387 177.206V177.445C43.1387 178.298 43.3141 178.954 43.665 179.414C44.016 179.874 44.5173 180.104 45.1689 180.104ZM50.9043 181H49.6396V173.604H50.9043V181ZM49.5371 171.642C49.5371 171.437 49.5986 171.263 49.7217 171.122C49.8493 170.981 50.0361 170.91 50.2822 170.91C50.5283 170.91 50.7152 170.981 50.8428 171.122C50.9704 171.263 51.0342 171.437 51.0342 171.642C51.0342 171.847 50.9704 172.018 50.8428 172.154C50.7152 172.291 50.5283 172.359 50.2822 172.359C50.0361 172.359 49.8493 172.291 49.7217 172.154C49.5986 172.018 49.5371 171.847 49.5371 171.642ZM52.5996 177.233C52.5996 176.509 52.7409 175.857 53.0234 175.278C53.3105 174.7 53.707 174.253 54.2129 173.938C54.7233 173.624 55.3044 173.467 55.9561 173.467C56.9632 173.467 57.7767 173.815 58.3965 174.513C59.0208 175.21 59.333 176.137 59.333 177.295V177.384C59.333 178.104 59.194 178.751 58.916 179.325C58.6426 179.895 58.2484 180.339 57.7334 180.658C57.223 180.977 56.6351 181.137 55.9697 181.137C54.9671 181.137 54.1536 180.788 53.5293 180.091C52.9095 179.394 52.5996 178.471 52.5996 177.322V177.233ZM53.8711 177.384C53.8711 178.204 54.0602 178.863 54.4385 179.359C54.8213 179.856 55.3317 180.104 55.9697 180.104C56.6123 180.104 57.1227 179.854 57.501 179.353C57.8792 178.847 58.0684 178.14 58.0684 177.233C58.0684 176.422 57.8747 175.766 57.4873 175.265C57.1045 174.759 56.5941 174.506 55.9561 174.506C55.3317 174.506 54.8281 174.754 54.4453 175.251C54.0625 175.748 53.8711 176.459 53.8711 177.384ZM62.1152 173.604L62.1562 174.533C62.7214 173.822 63.4596 173.467 64.3711 173.467C65.9342 173.467 66.7227 174.349 66.7363 176.112V181H65.4717V176.105C65.4671 175.572 65.3441 175.178 65.1025 174.923C64.8656 174.668 64.4941 174.54 63.9883 174.54C63.5781 174.54 63.2181 174.649 62.9082 174.868C62.5983 175.087 62.3568 175.374 62.1836 175.729V181H60.9189V173.604H62.1152ZM71.7129 181.137C70.7103 181.137 69.8945 180.809 69.2656 180.152C68.6367 179.492 68.3223 178.61 68.3223 177.507V177.274C68.3223 176.541 68.4613 175.887 68.7393 175.312C69.0218 174.734 69.4137 174.283 69.915 173.959C70.4209 173.631 70.9678 173.467 71.5557 173.467C72.5173 173.467 73.2646 173.784 73.7979 174.417C74.3311 175.05 74.5977 175.957 74.5977 177.138V177.664H69.5869C69.6051 178.393 69.8171 178.983 70.2227 179.435C70.6328 179.881 71.1523 180.104 71.7812 180.104C72.2279 180.104 72.6061 180.013 72.916 179.831C73.2259 179.649 73.4971 179.407 73.7295 179.106L74.502 179.708C73.8822 180.66 72.9525 181.137 71.7129 181.137ZM71.5557 174.506C71.0452 174.506 70.6169 174.693 70.2705 175.066C69.9242 175.436 69.71 175.955 69.6279 176.625H73.333V176.529C73.2965 175.887 73.1234 175.39 72.8135 175.039C72.5036 174.684 72.0843 174.506 71.5557 174.506ZM79.2051 177.233C79.2051 176.509 79.3464 175.857 79.6289 175.278C79.916 174.7 80.3125 174.253 80.8184 173.938C81.3288 173.624 81.9098 173.467 82.5615 173.467C83.5687 173.467 84.3822 173.815 85.002 174.513C85.6263 175.21 85.9385 176.137 85.9385 177.295V177.384C85.9385 178.104 85.7995 178.751 85.5215 179.325C85.248 179.895 84.8538 180.339 84.3389 180.658C83.8285 180.977 83.2406 181.137 82.5752 181.137C81.5726 181.137 80.7591 180.788 80.1348 180.091C79.515 179.394 79.2051 178.471 79.2051 177.322V177.233ZM80.4766 177.384C80.4766 178.204 80.6657 178.863 81.0439 179.359C81.4268 179.856 81.9372 180.104 82.5752 180.104C83.2178 180.104 83.7282 179.854 84.1064 179.353C84.4847 178.847 84.6738 178.14 84.6738 177.233C84.6738 176.422 84.4801 175.766 84.0928 175.265C83.71 174.759 83.1995 174.506 82.5615 174.506C81.9372 174.506 81.4336 174.754 81.0508 175.251C80.668 175.748 80.4766 176.459 80.4766 177.384ZM91.8311 179.038C91.8311 178.696 91.7012 178.432 91.4414 178.245C91.1862 178.054 90.7373 177.89 90.0947 177.753C89.4567 177.616 88.9486 177.452 88.5703 177.261C88.1966 177.069 87.9186 176.841 87.7363 176.577C87.5586 176.313 87.4697 175.998 87.4697 175.634C87.4697 175.028 87.7249 174.515 88.2354 174.096C88.7503 173.676 89.4066 173.467 90.2041 173.467C91.0426 173.467 91.7217 173.683 92.2412 174.116C92.7653 174.549 93.0273 175.103 93.0273 175.777H91.7559C91.7559 175.431 91.6077 175.132 91.3115 174.882C91.0199 174.631 90.6507 174.506 90.2041 174.506C89.7438 174.506 89.3838 174.606 89.124 174.807C88.8643 175.007 88.7344 175.269 88.7344 175.593C88.7344 175.898 88.8551 176.128 89.0967 176.283C89.3382 176.438 89.7734 176.586 90.4023 176.728C91.0358 176.869 91.5485 177.037 91.9404 177.233C92.3324 177.429 92.6217 177.666 92.8086 177.944C93 178.218 93.0957 178.553 93.0957 178.949C93.0957 179.61 92.8314 180.141 92.3027 180.542C91.7741 180.938 91.0882 181.137 90.2451 181.137C89.6527 181.137 89.1286 181.032 88.6729 180.822C88.2171 180.613 87.8594 180.321 87.5996 179.947C87.3444 179.569 87.2168 179.161 87.2168 178.724H88.4814C88.5042 179.147 88.6729 179.485 88.9873 179.735C89.3063 179.981 89.7256 180.104 90.2451 180.104C90.7236 180.104 91.1064 180.009 91.3936 179.817C91.6852 179.621 91.8311 179.362 91.8311 179.038ZM104.464 177.384C104.464 178.509 104.206 179.416 103.691 180.104C103.176 180.793 102.479 181.137 101.6 181.137C100.702 181.137 99.9954 180.852 99.4805 180.282V183.844H98.2158V173.604H99.3711L99.4326 174.424C99.9476 173.786 100.663 173.467 101.579 173.467C102.468 173.467 103.17 173.802 103.685 174.472C104.204 175.142 104.464 176.074 104.464 177.268V177.384ZM103.199 177.24C103.199 176.406 103.021 175.748 102.666 175.265C102.311 174.782 101.823 174.54 101.203 174.54C100.438 174.54 99.8633 174.88 99.4805 175.559V179.093C99.8587 179.767 100.438 180.104 101.217 180.104C101.823 180.104 102.304 179.865 102.659 179.387C103.019 178.904 103.199 178.188 103.199 177.24ZM110.644 181C110.571 180.854 110.511 180.594 110.466 180.221C109.878 180.831 109.176 181.137 108.36 181.137C107.631 181.137 107.032 180.932 106.562 180.521C106.098 180.107 105.865 179.583 105.865 178.949C105.865 178.179 106.157 177.582 106.74 177.158C107.328 176.73 108.153 176.516 109.215 176.516H110.445V175.935C110.445 175.493 110.313 175.142 110.049 174.882C109.785 174.618 109.395 174.485 108.88 174.485C108.429 174.485 108.05 174.599 107.745 174.827C107.44 175.055 107.287 175.331 107.287 175.654H106.016C106.016 175.285 106.146 174.93 106.405 174.588C106.67 174.242 107.025 173.968 107.472 173.768C107.923 173.567 108.417 173.467 108.955 173.467C109.807 173.467 110.475 173.681 110.958 174.109C111.441 174.533 111.692 175.119 111.71 175.866V179.271C111.71 179.95 111.797 180.49 111.97 180.891V181H110.644ZM108.545 180.036C108.941 180.036 109.317 179.934 109.673 179.729C110.028 179.523 110.286 179.257 110.445 178.929V177.411H109.454C107.905 177.411 107.13 177.865 107.13 178.771C107.13 179.168 107.262 179.478 107.526 179.701C107.791 179.924 108.13 180.036 108.545 180.036ZM117.268 174.738C117.076 174.706 116.869 174.69 116.646 174.69C115.816 174.69 115.253 175.044 114.957 175.75V181H113.692V173.604H114.923L114.943 174.458C115.358 173.797 115.946 173.467 116.707 173.467C116.953 173.467 117.14 173.499 117.268 173.562V174.738ZM122.729 181C122.657 180.854 122.597 180.594 122.552 180.221C121.964 180.831 121.262 181.137 120.446 181.137C119.717 181.137 119.118 180.932 118.648 180.521C118.184 180.107 117.951 179.583 117.951 178.949C117.951 178.179 118.243 177.582 118.826 177.158C119.414 176.73 120.239 176.516 121.301 176.516H122.531V175.935C122.531 175.493 122.399 175.142 122.135 174.882C121.87 174.618 121.481 174.485 120.966 174.485C120.515 174.485 120.136 174.599 119.831 174.827C119.526 175.055 119.373 175.331 119.373 175.654H118.102C118.102 175.285 118.231 174.93 118.491 174.588C118.756 174.242 119.111 173.968 119.558 173.768C120.009 173.567 120.503 173.467 121.041 173.467C121.893 173.467 122.561 173.681 123.044 174.109C123.527 174.533 123.778 175.119 123.796 175.866V179.271C123.796 179.95 123.882 180.49 124.056 180.891V181H122.729ZM120.631 180.036C121.027 180.036 121.403 179.934 121.759 179.729C122.114 179.523 122.372 179.257 122.531 178.929V177.411H121.54C119.991 177.411 119.216 177.865 119.216 178.771C119.216 179.168 119.348 179.478 119.612 179.701C119.877 179.924 120.216 180.036 120.631 180.036ZM123.249 172.373V172.441H122.203L121.178 171.279L120.159 172.441H119.113V172.359L120.795 170.5H121.561L123.249 172.373ZM126.968 173.604L127.002 174.424C127.544 173.786 128.276 173.467 129.196 173.467C130.231 173.467 130.935 173.863 131.309 174.656C131.555 174.301 131.874 174.014 132.266 173.795C132.662 173.576 133.129 173.467 133.667 173.467C135.289 173.467 136.114 174.326 136.142 176.044V181H134.877V176.119C134.877 175.59 134.756 175.196 134.515 174.937C134.273 174.672 133.868 174.54 133.298 174.54C132.828 174.54 132.439 174.681 132.129 174.964C131.819 175.242 131.639 175.618 131.589 176.092V181H130.317V176.153C130.317 175.078 129.791 174.54 128.738 174.54C127.909 174.54 127.341 174.893 127.036 175.6V181H125.771V173.604H126.968ZM141.125 181.137C140.122 181.137 139.307 180.809 138.678 180.152C138.049 179.492 137.734 178.61 137.734 177.507V177.274C137.734 176.541 137.873 175.887 138.151 175.312C138.434 174.734 138.826 174.283 139.327 173.959C139.833 173.631 140.38 173.467 140.968 173.467C141.929 173.467 142.677 173.784 143.21 174.417C143.743 175.05 144.01 175.957 144.01 177.138V177.664H138.999C139.017 178.393 139.229 178.983 139.635 179.435C140.045 179.881 140.564 180.104 141.193 180.104C141.64 180.104 142.018 180.013 142.328 179.831C142.638 179.649 142.909 179.407 143.142 179.106L143.914 179.708C143.294 180.66 142.365 181.137 141.125 181.137ZM140.968 174.506C140.457 174.506 140.029 174.693 139.683 175.066C139.336 175.436 139.122 175.955 139.04 176.625H142.745V176.529C142.709 175.887 142.535 175.39 142.226 175.039C141.916 174.684 141.496 174.506 140.968 174.506ZM147.195 171.812V173.604H148.576V174.581H147.195V179.168C147.195 179.464 147.257 179.688 147.38 179.838C147.503 179.984 147.713 180.057 148.009 180.057C148.155 180.057 148.355 180.029 148.61 179.975V181C148.278 181.091 147.954 181.137 147.64 181.137C147.075 181.137 146.648 180.966 146.361 180.624C146.074 180.282 145.931 179.797 145.931 179.168V174.581H144.584V173.604H145.931V171.812H147.195ZM153.635 174.738C153.443 174.706 153.236 174.69 153.013 174.69C152.183 174.69 151.62 175.044 151.324 175.75V181H150.06V173.604H151.29L151.311 174.458C151.725 173.797 152.313 173.467 153.074 173.467C153.32 173.467 153.507 173.499 153.635 173.562V174.738ZM154.332 177.233C154.332 176.509 154.473 175.857 154.756 175.278C155.043 174.7 155.439 174.253 155.945 173.938C156.456 173.624 157.037 173.467 157.688 173.467C158.696 173.467 159.509 173.815 160.129 174.513C160.753 175.21 161.065 176.137 161.065 177.295V177.384C161.065 178.104 160.926 178.751 160.648 179.325C160.375 179.895 159.981 180.339 159.466 180.658C158.955 180.977 158.368 181.137 157.702 181.137C156.7 181.137 155.886 180.788 155.262 180.091C154.642 179.394 154.332 178.471 154.332 177.322V177.233ZM155.604 177.384C155.604 178.204 155.793 178.863 156.171 179.359C156.554 179.856 157.064 180.104 157.702 180.104C158.345 180.104 158.855 179.854 159.233 179.353C159.612 178.847 159.801 178.14 159.801 177.233C159.801 176.422 159.607 175.766 159.22 175.265C158.837 174.759 158.326 174.506 157.688 174.506C157.064 174.506 156.561 174.754 156.178 175.251C155.795 175.748 155.604 176.459 155.604 177.384ZM166.958 179.038C166.958 178.696 166.828 178.432 166.568 178.245C166.313 178.054 165.864 177.89 165.222 177.753C164.584 177.616 164.076 177.452 163.697 177.261C163.324 177.069 163.046 176.841 162.863 176.577C162.686 176.313 162.597 175.998 162.597 175.634C162.597 175.028 162.852 174.515 163.362 174.096C163.877 173.676 164.534 173.467 165.331 173.467C166.17 173.467 166.849 173.683 167.368 174.116C167.892 174.549 168.154 175.103 168.154 175.777H166.883C166.883 175.431 166.735 175.132 166.438 174.882C166.147 174.631 165.778 174.506 165.331 174.506C164.871 174.506 164.511 174.606 164.251 174.807C163.991 175.007 163.861 175.269 163.861 175.593C163.861 175.898 163.982 176.128 164.224 176.283C164.465 176.438 164.9 176.586 165.529 176.728C166.163 176.869 166.675 177.037 167.067 177.233C167.459 177.429 167.749 177.666 167.936 177.944C168.127 178.218 168.223 178.553 168.223 178.949C168.223 179.61 167.958 180.141 167.43 180.542C166.901 180.938 166.215 181.137 165.372 181.137C164.78 181.137 164.256 181.032 163.8 180.822C163.344 180.613 162.986 180.321 162.727 179.947C162.471 179.569 162.344 179.161 162.344 178.724H163.608C163.631 179.147 163.8 179.485 164.114 179.735C164.433 179.981 164.853 180.104 165.372 180.104C165.851 180.104 166.233 180.009 166.521 179.817C166.812 179.621 166.958 179.362 166.958 179.038ZM176.412 181.137C175.41 181.137 174.594 180.809 173.965 180.152C173.336 179.492 173.021 178.61 173.021 177.507V177.274C173.021 176.541 173.16 175.887 173.438 175.312C173.721 174.734 174.113 174.283 174.614 173.959C175.12 173.631 175.667 173.467 176.255 173.467C177.216 173.467 177.964 173.784 178.497 174.417C179.03 175.05 179.297 175.957 179.297 177.138V177.664H174.286C174.304 178.393 174.516 178.983 174.922 179.435C175.332 179.881 175.852 180.104 176.48 180.104C176.927 180.104 177.305 180.013 177.615 179.831C177.925 179.649 178.196 179.407 178.429 179.106L179.201 179.708C178.581 180.66 177.652 181.137 176.412 181.137ZM176.255 174.506C175.744 174.506 175.316 174.693 174.97 175.066C174.623 175.436 174.409 175.955 174.327 176.625H178.032V176.529C177.996 175.887 177.823 175.39 177.513 175.039C177.203 174.684 176.784 174.506 176.255 174.506ZM188.806 181C188.733 180.854 188.674 180.594 188.628 180.221C188.04 180.831 187.338 181.137 186.522 181.137C185.793 181.137 185.194 180.932 184.725 180.521C184.26 180.107 184.027 179.583 184.027 178.949C184.027 178.179 184.319 177.582 184.902 177.158C185.49 176.73 186.315 176.516 187.377 176.516H188.607V175.935C188.607 175.493 188.475 175.142 188.211 174.882C187.947 174.618 187.557 174.485 187.042 174.485C186.591 174.485 186.213 174.599 185.907 174.827C185.602 175.055 185.449 175.331 185.449 175.654H184.178C184.178 175.285 184.308 174.93 184.567 174.588C184.832 174.242 185.187 173.968 185.634 173.768C186.085 173.567 186.579 173.467 187.117 173.467C187.969 173.467 188.637 173.681 189.12 174.109C189.603 174.533 189.854 175.119 189.872 175.866V179.271C189.872 179.95 189.959 180.49 190.132 180.891V181H188.806ZM186.707 180.036C187.104 180.036 187.479 179.934 187.835 179.729C188.19 179.523 188.448 179.257 188.607 178.929V177.411H187.616C186.067 177.411 185.292 177.865 185.292 178.771C185.292 179.168 185.424 179.478 185.688 179.701C185.953 179.924 186.292 180.036 186.707 180.036ZM191.547 177.24C191.547 176.105 191.816 175.194 192.354 174.506C192.891 173.813 193.595 173.467 194.466 173.467C195.332 173.467 196.018 173.763 196.523 174.355V170.5H197.788V181H196.626L196.564 180.207C196.059 180.827 195.354 181.137 194.452 181.137C193.595 181.137 192.896 180.786 192.354 180.084C191.816 179.382 191.547 178.466 191.547 177.336V177.24ZM192.812 177.384C192.812 178.222 192.985 178.879 193.331 179.353C193.677 179.826 194.156 180.063 194.767 180.063C195.569 180.063 196.154 179.703 196.523 178.983V175.586C196.145 174.889 195.564 174.54 194.78 174.54C194.16 174.54 193.677 174.779 193.331 175.258C192.985 175.736 192.812 176.445 192.812 177.384ZM201.131 181H199.866V173.604H201.131V181ZM199.764 171.642C199.764 171.437 199.825 171.263 199.948 171.122C200.076 170.981 200.263 170.91 200.509 170.91C200.755 170.91 200.942 170.981 201.069 171.122C201.197 171.263 201.261 171.437 201.261 171.642C201.261 171.847 201.197 172.018 201.069 172.154C200.942 172.291 200.755 172.359 200.509 172.359C200.263 172.359 200.076 172.291 199.948 172.154C199.825 172.018 199.764 171.847 199.764 171.642ZM206.128 180.104C206.579 180.104 206.973 179.968 207.311 179.694C207.648 179.421 207.835 179.079 207.871 178.669H209.067C209.045 179.093 208.899 179.496 208.63 179.879C208.361 180.262 208.001 180.567 207.55 180.795C207.103 181.023 206.629 181.137 206.128 181.137C205.121 181.137 204.319 180.802 203.722 180.132C203.129 179.457 202.833 178.537 202.833 177.37V177.158C202.833 176.438 202.965 175.798 203.229 175.237C203.494 174.677 203.872 174.242 204.364 173.932C204.861 173.622 205.447 173.467 206.121 173.467C206.951 173.467 207.639 173.715 208.186 174.212C208.737 174.709 209.031 175.354 209.067 176.146H207.871C207.835 175.668 207.652 175.276 207.324 174.971C207.001 174.661 206.6 174.506 206.121 174.506C205.479 174.506 204.979 174.738 204.624 175.203C204.273 175.663 204.098 176.331 204.098 177.206V177.445C204.098 178.298 204.273 178.954 204.624 179.414C204.975 179.874 205.476 180.104 206.128 180.104ZM211.863 181H210.599V173.604H211.863V181ZM210.496 171.642C210.496 171.437 210.558 171.263 210.681 171.122C210.808 170.981 210.995 170.91 211.241 170.91C211.487 170.91 211.674 170.981 211.802 171.122C211.929 171.263 211.993 171.437 211.993 171.642C211.993 171.847 211.929 172.018 211.802 172.154C211.674 172.291 211.487 172.359 211.241 172.359C210.995 172.359 210.808 172.291 210.681 172.154C210.558 172.018 210.496 171.847 210.496 171.642ZM213.559 177.233C213.559 176.509 213.7 175.857 213.982 175.278C214.27 174.7 214.666 174.253 215.172 173.938C215.682 173.624 216.263 173.467 216.915 173.467C217.922 173.467 218.736 173.815 219.355 174.513C219.98 175.21 220.292 176.137 220.292 177.295V177.384C220.292 178.104 220.153 178.751 219.875 179.325C219.602 179.895 219.207 180.339 218.692 180.658C218.182 180.977 217.594 181.137 216.929 181.137C215.926 181.137 215.113 180.788 214.488 180.091C213.868 179.394 213.559 178.471 213.559 177.322V177.233ZM214.83 177.384C214.83 178.204 215.019 178.863 215.397 179.359C215.78 179.856 216.291 180.104 216.929 180.104C217.571 180.104 218.082 179.854 218.46 179.353C218.838 178.847 219.027 178.14 219.027 177.233C219.027 176.422 218.834 175.766 218.446 175.265C218.063 174.759 217.553 174.506 216.915 174.506C216.291 174.506 215.787 174.754 215.404 175.251C215.021 175.748 214.83 176.459 214.83 177.384ZM223.074 173.604L223.115 174.533C223.68 173.822 224.419 173.467 225.33 173.467C226.893 173.467 227.682 174.349 227.695 176.112V181H226.431V176.105C226.426 175.572 226.303 175.178 226.062 174.923C225.825 174.668 225.453 174.54 224.947 174.54C224.537 174.54 224.177 174.649 223.867 174.868C223.557 175.087 223.316 175.374 223.143 175.729V181H221.878V173.604H223.074ZM232.672 181.137C231.669 181.137 230.854 180.809 230.225 180.152C229.596 179.492 229.281 178.61 229.281 177.507V177.274C229.281 176.541 229.42 175.887 229.698 175.312C229.981 174.734 230.373 174.283 230.874 173.959C231.38 173.631 231.927 173.467 232.515 173.467C233.476 173.467 234.224 173.784 234.757 174.417C235.29 175.05 235.557 175.957 235.557 177.138V177.664H230.546C230.564 178.393 230.776 178.983 231.182 179.435C231.592 179.881 232.111 180.104 232.74 180.104C233.187 180.104 233.565 180.013 233.875 179.831C234.185 179.649 234.456 179.407 234.688 179.106L235.461 179.708C234.841 180.66 233.911 181.137 232.672 181.137ZM232.515 174.506C232.004 174.506 231.576 174.693 231.229 175.066C230.883 175.436 230.669 175.955 230.587 176.625H234.292V176.529C234.256 175.887 234.082 175.39 233.772 175.039C233.463 174.684 233.043 174.506 232.515 174.506ZM244.806 179.038C244.806 178.696 244.676 178.432 244.416 178.245C244.161 178.054 243.712 177.89 243.069 177.753C242.431 177.616 241.923 177.452 241.545 177.261C241.171 177.069 240.893 176.841 240.711 176.577C240.533 176.313 240.444 175.998 240.444 175.634C240.444 175.028 240.7 174.515 241.21 174.096C241.725 173.676 242.381 173.467 243.179 173.467C244.017 173.467 244.696 173.683 245.216 174.116C245.74 174.549 246.002 175.103 246.002 175.777H244.73C244.73 175.431 244.582 175.132 244.286 174.882C243.994 174.631 243.625 174.506 243.179 174.506C242.718 174.506 242.358 174.606 242.099 174.807C241.839 175.007 241.709 175.269 241.709 175.593C241.709 175.898 241.83 176.128 242.071 176.283C242.313 176.438 242.748 176.586 243.377 176.728C244.01 176.869 244.523 177.037 244.915 177.233C245.307 177.429 245.596 177.666 245.783 177.944C245.975 178.218 246.07 178.553 246.07 178.949C246.07 179.61 245.806 180.141 245.277 180.542C244.749 180.938 244.063 181.137 243.22 181.137C242.627 181.137 242.103 181.032 241.647 180.822C241.192 180.613 240.834 180.321 240.574 179.947C240.319 179.569 240.191 179.161 240.191 178.724H241.456C241.479 179.147 241.647 179.485 241.962 179.735C242.281 179.981 242.7 180.104 243.22 180.104C243.698 180.104 244.081 180.009 244.368 179.817C244.66 179.621 244.806 179.362 244.806 179.038ZM252.284 180.269C251.792 180.847 251.07 181.137 250.117 181.137C249.329 181.137 248.727 180.909 248.312 180.453C247.902 179.993 247.695 179.314 247.69 178.416V173.604H248.955V178.382C248.955 179.503 249.411 180.063 250.322 180.063C251.288 180.063 251.931 179.703 252.25 178.983V173.604H253.515V181H252.312L252.284 180.269ZM260.009 181C259.936 180.854 259.877 180.594 259.831 180.221C259.243 180.831 258.541 181.137 257.726 181.137C256.996 181.137 256.397 180.932 255.928 180.521C255.463 180.107 255.23 179.583 255.23 178.949C255.23 178.179 255.522 177.582 256.105 177.158C256.693 176.73 257.518 176.516 258.58 176.516H259.811V175.935C259.811 175.493 259.678 175.142 259.414 174.882C259.15 174.618 258.76 174.485 258.245 174.485C257.794 174.485 257.416 174.599 257.11 174.827C256.805 175.055 256.652 175.331 256.652 175.654H255.381C255.381 175.285 255.511 174.93 255.771 174.588C256.035 174.242 256.39 173.968 256.837 173.768C257.288 173.567 257.783 173.467 258.32 173.467C259.173 173.467 259.84 173.681 260.323 174.109C260.806 174.533 261.057 175.119 261.075 175.866V179.271C261.075 179.95 261.162 180.49 261.335 180.891V181H260.009ZM257.91 180.036C258.307 180.036 258.683 179.934 259.038 179.729C259.394 179.523 259.651 179.257 259.811 178.929V177.411H258.819C257.27 177.411 256.495 177.865 256.495 178.771C256.495 179.168 256.627 179.478 256.892 179.701C257.156 179.924 257.495 180.036 257.91 180.036ZM267.364 179.038C267.364 178.696 267.234 178.432 266.975 178.245C266.719 178.054 266.271 177.89 265.628 177.753C264.99 177.616 264.482 177.452 264.104 177.261C263.73 177.069 263.452 176.841 263.27 176.577C263.092 176.313 263.003 175.998 263.003 175.634C263.003 175.028 263.258 174.515 263.769 174.096C264.284 173.676 264.94 173.467 265.737 173.467C266.576 173.467 267.255 173.683 267.774 174.116C268.299 174.549 268.561 175.103 268.561 175.777H267.289C267.289 175.431 267.141 175.132 266.845 174.882C266.553 174.631 266.184 174.506 265.737 174.506C265.277 174.506 264.917 174.606 264.657 174.807C264.397 175.007 264.268 175.269 264.268 175.593C264.268 175.898 264.388 176.128 264.63 176.283C264.871 176.438 265.307 176.586 265.936 176.728C266.569 176.869 267.082 177.037 267.474 177.233C267.866 177.429 268.155 177.666 268.342 177.944C268.533 178.218 268.629 178.553 268.629 178.949C268.629 179.61 268.365 180.141 267.836 180.542C267.307 180.938 266.621 181.137 265.778 181.137C265.186 181.137 264.662 181.032 264.206 180.822C263.75 180.613 263.393 180.321 263.133 179.947C262.878 179.569 262.75 179.161 262.75 178.724H264.015C264.037 179.147 264.206 179.485 264.521 179.735C264.84 179.981 265.259 180.104 265.778 180.104C266.257 180.104 266.64 180.009 266.927 179.817C267.218 179.621 267.364 179.362 267.364 179.038ZM95.8164 198.24C95.8164 197.105 96.0853 196.194 96.623 195.506C97.1608 194.813 97.8649 194.467 98.7354 194.467C99.6012 194.467 100.287 194.763 100.793 195.355V191.5H102.058V202H100.896L100.834 201.207C100.328 201.827 99.624 202.137 98.7217 202.137C97.8649 202.137 97.1654 201.786 96.623 201.084C96.0853 200.382 95.8164 199.466 95.8164 198.336V198.24ZM97.0811 198.384C97.0811 199.222 97.2542 199.879 97.6006 200.353C97.9469 200.826 98.4255 201.063 99.0361 201.063C99.8382 201.063 100.424 200.703 100.793 199.983V196.586C100.415 195.889 99.8337 195.54 99.0498 195.54C98.43 195.54 97.9469 195.779 97.6006 196.258C97.2542 196.736 97.0811 197.445 97.0811 198.384ZM107.096 202.137C106.093 202.137 105.277 201.809 104.648 201.152C104.02 200.492 103.705 199.61 103.705 198.507V198.274C103.705 197.541 103.844 196.887 104.122 196.312C104.405 195.734 104.797 195.283 105.298 194.959C105.804 194.631 106.351 194.467 106.938 194.467C107.9 194.467 108.647 194.784 109.181 195.417C109.714 196.05 109.98 196.957 109.98 198.138V198.664H104.97C104.988 199.393 105.2 199.983 105.605 200.435C106.016 200.881 106.535 201.104 107.164 201.104C107.611 201.104 107.989 201.013 108.299 200.831C108.609 200.649 108.88 200.407 109.112 200.106L109.885 200.708C109.265 201.66 108.335 202.137 107.096 202.137ZM106.938 195.506C106.428 195.506 106 195.693 105.653 196.066C105.307 196.436 105.093 196.955 105.011 197.625H108.716V197.529C108.679 196.887 108.506 196.39 108.196 196.039C107.886 195.684 107.467 195.506 106.938 195.506ZM115.757 200.038C115.757 199.696 115.627 199.432 115.367 199.245C115.112 199.054 114.663 198.89 114.021 198.753C113.382 198.616 112.874 198.452 112.496 198.261C112.122 198.069 111.844 197.841 111.662 197.577C111.484 197.313 111.396 196.998 111.396 196.634C111.396 196.028 111.651 195.515 112.161 195.096C112.676 194.676 113.332 194.467 114.13 194.467C114.968 194.467 115.647 194.683 116.167 195.116C116.691 195.549 116.953 196.103 116.953 196.777H115.682C115.682 196.431 115.534 196.132 115.237 195.882C114.946 195.631 114.576 195.506 114.13 195.506C113.67 195.506 113.31 195.606 113.05 195.807C112.79 196.007 112.66 196.269 112.66 196.593C112.66 196.898 112.781 197.128 113.022 197.283C113.264 197.438 113.699 197.586 114.328 197.728C114.962 197.869 115.474 198.037 115.866 198.233C116.258 198.429 116.548 198.666 116.734 198.944C116.926 199.218 117.021 199.553 117.021 199.949C117.021 200.61 116.757 201.141 116.229 201.542C115.7 201.938 115.014 202.137 114.171 202.137C113.578 202.137 113.054 202.032 112.599 201.822C112.143 201.613 111.785 201.321 111.525 200.947C111.27 200.569 111.143 200.161 111.143 199.724H112.407C112.43 200.147 112.599 200.485 112.913 200.735C113.232 200.981 113.651 201.104 114.171 201.104C114.649 201.104 115.032 201.009 115.319 200.817C115.611 200.621 115.757 200.362 115.757 200.038ZM124.917 198.384C124.917 199.509 124.66 200.416 124.145 201.104C123.63 201.793 122.932 202.137 122.053 202.137C121.155 202.137 120.449 201.852 119.934 201.282V204.844H118.669V194.604H119.824L119.886 195.424C120.401 194.786 121.116 194.467 122.032 194.467C122.921 194.467 123.623 194.802 124.138 195.472C124.657 196.142 124.917 197.074 124.917 198.268V198.384ZM123.652 198.24C123.652 197.406 123.475 196.748 123.119 196.265C122.764 195.782 122.276 195.54 121.656 195.54C120.891 195.54 120.316 195.88 119.934 196.559V200.093C120.312 200.767 120.891 201.104 121.67 201.104C122.276 201.104 122.757 200.865 123.112 200.387C123.472 199.904 123.652 199.188 123.652 198.24ZM129.6 202.137C128.597 202.137 127.781 201.809 127.152 201.152C126.523 200.492 126.209 199.61 126.209 198.507V198.274C126.209 197.541 126.348 196.887 126.626 196.312C126.909 195.734 127.3 195.283 127.802 194.959C128.308 194.631 128.854 194.467 129.442 194.467C130.404 194.467 131.151 194.784 131.685 195.417C132.218 196.05 132.484 196.957 132.484 198.138V198.664H127.474C127.492 199.393 127.704 199.983 128.109 200.435C128.52 200.881 129.039 201.104 129.668 201.104C130.115 201.104 130.493 201.013 130.803 200.831C131.113 200.649 131.384 200.407 131.616 200.106L132.389 200.708C131.769 201.66 130.839 202.137 129.6 202.137ZM129.442 195.506C128.932 195.506 128.504 195.693 128.157 196.066C127.811 196.436 127.597 196.955 127.515 197.625H131.22V197.529C131.183 196.887 131.01 196.39 130.7 196.039C130.39 195.684 129.971 195.506 129.442 195.506ZM138.261 200.038C138.261 199.696 138.131 199.432 137.871 199.245C137.616 199.054 137.167 198.89 136.524 198.753C135.886 198.616 135.378 198.452 135 198.261C134.626 198.069 134.348 197.841 134.166 197.577C133.988 197.313 133.899 196.998 133.899 196.634C133.899 196.028 134.155 195.515 134.665 195.096C135.18 194.676 135.836 194.467 136.634 194.467C137.472 194.467 138.151 194.683 138.671 195.116C139.195 195.549 139.457 196.103 139.457 196.777H138.186C138.186 196.431 138.037 196.132 137.741 195.882C137.45 195.631 137.08 195.506 136.634 195.506C136.174 195.506 135.813 195.606 135.554 195.807C135.294 196.007 135.164 196.269 135.164 196.593C135.164 196.898 135.285 197.128 135.526 197.283C135.768 197.438 136.203 197.586 136.832 197.728C137.465 197.869 137.978 198.037 138.37 198.233C138.762 198.429 139.051 198.666 139.238 198.944C139.43 199.218 139.525 199.553 139.525 199.949C139.525 200.61 139.261 201.141 138.732 201.542C138.204 201.938 137.518 202.137 136.675 202.137C136.082 202.137 135.558 202.032 135.103 201.822C134.647 201.613 134.289 201.321 134.029 200.947C133.774 200.569 133.646 200.161 133.646 199.724H134.911C134.934 200.147 135.103 200.485 135.417 200.735C135.736 200.981 136.155 201.104 136.675 201.104C137.153 201.104 137.536 201.009 137.823 200.817C138.115 200.621 138.261 200.362 138.261 200.038ZM145.739 202C145.666 201.854 145.607 201.594 145.562 201.221C144.974 201.831 144.272 202.137 143.456 202.137C142.727 202.137 142.128 201.932 141.658 201.521C141.193 201.107 140.961 200.583 140.961 199.949C140.961 199.179 141.253 198.582 141.836 198.158C142.424 197.73 143.249 197.516 144.311 197.516H145.541V196.935C145.541 196.493 145.409 196.142 145.145 195.882C144.88 195.618 144.491 195.485 143.976 195.485C143.524 195.485 143.146 195.599 142.841 195.827C142.535 196.055 142.383 196.331 142.383 196.654H141.111C141.111 196.285 141.241 195.93 141.501 195.588C141.765 195.242 142.121 194.968 142.567 194.768C143.019 194.567 143.513 194.467 144.051 194.467C144.903 194.467 145.571 194.681 146.054 195.109C146.537 195.533 146.787 196.119 146.806 196.866V200.271C146.806 200.95 146.892 201.49 147.065 201.891V202H145.739ZM143.641 201.036C144.037 201.036 144.413 200.934 144.769 200.729C145.124 200.523 145.382 200.257 145.541 199.929V198.411H144.55C143 198.411 142.226 198.865 142.226 199.771C142.226 200.168 142.358 200.478 142.622 200.701C142.886 200.924 143.226 201.036 143.641 201.036ZM153.095 200.038C153.095 199.696 152.965 199.432 152.705 199.245C152.45 199.054 152.001 198.89 151.358 198.753C150.72 198.616 150.212 198.452 149.834 198.261C149.46 198.069 149.182 197.841 149 197.577C148.822 197.313 148.733 196.998 148.733 196.634C148.733 196.028 148.989 195.515 149.499 195.096C150.014 194.676 150.67 194.467 151.468 194.467C152.306 194.467 152.985 194.683 153.505 195.116C154.029 195.549 154.291 196.103 154.291 196.777H153.02C153.02 196.431 152.871 196.132 152.575 195.882C152.284 195.631 151.914 195.506 151.468 195.506C151.007 195.506 150.647 195.606 150.388 195.807C150.128 196.007 149.998 196.269 149.998 196.593C149.998 196.898 150.119 197.128 150.36 197.283C150.602 197.438 151.037 197.586 151.666 197.728C152.299 197.869 152.812 198.037 153.204 198.233C153.596 198.429 153.885 198.666 154.072 198.944C154.264 199.218 154.359 199.553 154.359 199.949C154.359 200.61 154.095 201.141 153.566 201.542C153.038 201.938 152.352 202.137 151.509 202.137C150.916 202.137 150.392 202.032 149.937 201.822C149.481 201.613 149.123 201.321 148.863 200.947C148.608 200.569 148.48 200.161 148.48 199.724H149.745C149.768 200.147 149.937 200.485 150.251 200.735C150.57 200.981 150.989 201.104 151.509 201.104C151.987 201.104 152.37 201.009 152.657 200.817C152.949 200.621 153.095 200.362 153.095 200.038ZM164.046 202C163.973 201.854 163.914 201.594 163.868 201.221C163.28 201.831 162.578 202.137 161.763 202.137C161.034 202.137 160.434 201.932 159.965 201.521C159.5 201.107 159.268 200.583 159.268 199.949C159.268 199.179 159.559 198.582 160.143 198.158C160.73 197.73 161.555 197.516 162.617 197.516H163.848V196.935C163.848 196.493 163.715 196.142 163.451 195.882C163.187 195.618 162.797 195.485 162.282 195.485C161.831 195.485 161.453 195.599 161.147 195.827C160.842 196.055 160.689 196.331 160.689 196.654H159.418C159.418 196.285 159.548 195.93 159.808 195.588C160.072 195.242 160.427 194.968 160.874 194.768C161.325 194.567 161.82 194.467 162.357 194.467C163.21 194.467 163.877 194.681 164.36 195.109C164.843 195.533 165.094 196.119 165.112 196.866V200.271C165.112 200.95 165.199 201.49 165.372 201.891V202H164.046ZM161.947 201.036C162.344 201.036 162.72 200.934 163.075 200.729C163.431 200.523 163.688 200.257 163.848 199.929V198.411H162.856C161.307 198.411 160.532 198.865 160.532 199.771C160.532 200.168 160.664 200.478 160.929 200.701C161.193 200.924 161.533 201.036 161.947 201.036ZM166.787 198.24C166.787 197.078 167.054 196.16 167.587 195.485C168.12 194.806 168.836 194.467 169.733 194.467C170.608 194.467 171.299 194.761 171.805 195.349L171.859 194.604H173.021V204.844H171.757V201.316C171.246 201.863 170.567 202.137 169.72 202.137C168.826 202.137 168.113 201.79 167.58 201.098C167.051 200.4 166.787 199.478 166.787 198.329V198.24ZM168.052 198.384C168.052 199.231 168.229 199.897 168.585 200.38C168.945 200.863 169.428 201.104 170.034 201.104C170.786 201.104 171.36 200.772 171.757 200.106V196.483C171.356 195.832 170.786 195.506 170.048 195.506C169.437 195.506 168.952 195.75 168.592 196.237C168.232 196.72 168.052 197.436 168.052 198.384ZM179.618 201.269C179.126 201.847 178.404 202.137 177.451 202.137C176.663 202.137 176.061 201.909 175.646 201.453C175.236 200.993 175.029 200.314 175.024 199.416V194.604H176.289V199.382C176.289 200.503 176.745 201.063 177.656 201.063C178.622 201.063 179.265 200.703 179.584 199.983V194.604H180.849V202H179.646L179.618 201.269ZM184.15 202H182.886V194.604H184.15V202ZM182.783 192.642C182.783 192.437 182.845 192.263 182.968 192.122C183.095 191.981 183.282 191.91 183.528 191.91C183.774 191.91 183.961 191.981 184.089 192.122C184.216 192.263 184.28 192.437 184.28 192.642C184.28 192.847 184.216 193.018 184.089 193.154C183.961 193.291 183.774 193.359 183.528 193.359C183.282 193.359 183.095 193.291 182.968 193.154C182.845 193.018 182.783 192.847 182.783 192.642ZM187.596 199.19H186.454L186.365 192.047H187.691L187.596 199.19ZM186.317 201.364C186.317 201.159 186.379 200.988 186.502 200.852C186.63 200.71 186.816 200.64 187.062 200.64C187.309 200.64 187.495 200.71 187.623 200.852C187.751 200.988 187.814 201.159 187.814 201.364C187.814 201.569 187.751 201.74 187.623 201.877C187.495 202.009 187.309 202.075 187.062 202.075C186.816 202.075 186.63 202.009 186.502 201.877C186.379 201.74 186.317 201.569 186.317 201.364Z" fill="#737380"/>
<path d="M20.1384 151H17.6184L11.9124 142.378V151H9.39239V138.418H11.9124L17.6184 147.058V138.418H20.1384V151ZM31.8987 145.798C31.8987 146.158 31.8747 146.482 31.8267 146.77H24.5367C24.5967 147.49 24.8487 148.054 25.2927 148.462C25.7367 148.87 26.2827 149.074 26.9307 149.074C27.8667 149.074 28.5327 148.672 28.9287 147.868H31.6467C31.3587 148.828 30.8067 149.62 29.9907 150.244C29.1747 150.856 28.1727 151.162 26.9847 151.162C26.0247 151.162 25.1607 150.952 24.3927 150.532C23.6367 150.1 23.0427 149.494 22.6107 148.714C22.1907 147.934 21.9807 147.034 21.9807 146.014C21.9807 144.982 22.1907 144.076 22.6107 143.296C23.0307 142.516 23.6187 141.916 24.3747 141.496C25.1307 141.076 26.0007 140.866 26.9847 140.866C27.9327 140.866 28.7787 141.07 29.5227 141.478C30.2787 141.886 30.8607 142.468 31.2687 143.224C31.6887 143.968 31.8987 144.826 31.8987 145.798ZM29.2887 145.078C29.2767 144.43 29.0427 143.914 28.5867 143.53C28.1307 143.134 27.5727 142.936 26.9127 142.936C26.2887 142.936 25.7607 143.128 25.3287 143.512C24.9087 143.884 24.6507 144.406 24.5547 145.078H29.2887ZM39.2641 140.884C40.4521 140.884 41.4121 141.262 42.1441 142.018C42.8761 142.762 43.2421 143.806 43.2421 145.15V151H40.7221V145.492C40.7221 144.7 40.5241 144.094 40.1281 143.674C39.7321 143.242 39.1921 143.026 38.5081 143.026C37.8121 143.026 37.2601 143.242 36.8521 143.674C36.4561 144.094 36.2581 144.7 36.2581 145.492V151H33.7381V141.028H36.2581V142.27C36.5941 141.838 37.0201 141.502 37.5361 141.262C38.0641 141.01 38.6401 140.884 39.2641 140.884ZM51.2545 140.884C52.0105 140.884 52.6825 141.052 53.2705 141.388C53.8585 141.712 54.3145 142.198 54.6385 142.846C54.9745 143.482 55.1425 144.25 55.1425 145.15V151H52.6225V145.492C52.6225 144.7 52.4245 144.094 52.0285 143.674C51.6325 143.242 51.0925 143.026 50.4085 143.026C49.7125 143.026 49.1605 143.242 48.7525 143.674C48.3565 144.094 48.1585 144.7 48.1585 145.492V151H45.6385V137.68H48.1585V142.27C48.4825 141.838 48.9145 141.502 49.4545 141.262C49.9945 141.01 50.5945 140.884 51.2545 140.884ZM66.9529 141.028V151H64.4149V149.74C64.0909 150.172 63.6649 150.514 63.1369 150.766C62.6209 151.006 62.0569 151.126 61.4449 151.126C60.6649 151.126 59.9749 150.964 59.3749 150.64C58.7749 150.304 58.3009 149.818 57.9529 149.182C57.6169 148.534 57.4489 147.766 57.4489 146.878V141.028H59.9689V146.518C59.9689 147.31 60.1669 147.922 60.5629 148.354C60.9589 148.774 61.4989 148.984 62.1829 148.984C62.8789 148.984 63.4249 148.774 63.8209 148.354C64.2169 147.922 64.4149 147.31 64.4149 146.518V141.028H66.9529ZM81.8233 140.884C83.0473 140.884 84.0313 141.262 84.7753 142.018C85.5313 142.762 85.9093 143.806 85.9093 145.15V151H83.3893V145.492C83.3893 144.712 83.1913 144.118 82.7953 143.71C82.3993 143.29 81.8593 143.08 81.1753 143.08C80.4913 143.08 79.9453 143.29 79.5373 143.71C79.1413 144.118 78.9433 144.712 78.9433 145.492V151H76.4233V145.492C76.4233 144.712 76.2253 144.118 75.8293 143.71C75.4333 143.29 74.8933 143.08 74.2093 143.08C73.5133 143.08 72.9613 143.29 72.5533 143.71C72.1573 144.118 71.9593 144.712 71.9593 145.492V151H69.4393V141.028H71.9593V142.234C72.2833 141.814 72.6973 141.484 73.2013 141.244C73.7173 141.004 74.2813 140.884 74.8933 140.884C75.6733 140.884 76.3693 141.052 76.9813 141.388C77.5933 141.712 78.0673 142.18 78.4033 142.792C78.7273 142.216 79.1953 141.754 79.8073 141.406C80.4313 141.058 81.1033 140.884 81.8233 140.884ZM87.6526 145.978C87.6526 144.97 87.8506 144.076 88.2466 143.296C88.6546 142.516 89.2006 141.916 89.8846 141.496C90.5806 141.076 91.3546 140.866 92.2066 140.866C92.9506 140.866 93.5986 141.016 94.1506 141.316C94.7146 141.616 95.1646 141.994 95.5006 142.45V141.028H98.0386V151H95.5006V149.542C95.1766 150.01 94.7266 150.4 94.1506 150.712C93.5866 151.012 92.9326 151.162 92.1886 151.162C91.3486 151.162 90.5806 150.946 89.8846 150.514C89.2006 150.082 88.6546 149.476 88.2466 148.696C87.8506 147.904 87.6526 146.998 87.6526 145.978ZM95.5006 146.014C95.5006 145.402 95.3806 144.88 95.1406 144.448C94.9006 144.004 94.5766 143.668 94.1686 143.44C93.7606 143.2 93.3226 143.08 92.8546 143.08C92.3866 143.08 91.9546 143.194 91.5586 143.422C91.1626 143.65 90.8386 143.986 90.5866 144.43C90.3466 144.862 90.2266 145.378 90.2266 145.978C90.2266 146.578 90.3466 147.106 90.5866 147.562C90.8386 148.006 91.1626 148.348 91.5586 148.588C91.9666 148.828 92.3986 148.948 92.8546 148.948C93.3226 148.948 93.7606 148.834 94.1686 148.606C94.5766 148.366 94.9006 148.03 95.1406 147.598C95.3806 147.154 95.5006 146.626 95.5006 146.014ZM104.141 145.978C104.141 144.97 104.339 144.076 104.735 143.296C105.143 142.516 105.695 141.916 106.391 141.496C107.087 141.076 107.861 140.866 108.713 140.866C109.361 140.866 109.979 141.01 110.567 141.298C111.155 141.574 111.623 141.946 111.971 142.414V137.68H114.527V151H111.971V149.524C111.659 150.016 111.221 150.412 110.657 150.712C110.093 151.012 109.439 151.162 108.695 151.162C107.855 151.162 107.087 150.946 106.391 150.514C105.695 150.082 105.143 149.476 104.735 148.696C104.339 147.904 104.141 146.998 104.141 145.978ZM111.989 146.014C111.989 145.402 111.869 144.88 111.629 144.448C111.389 144.004 111.065 143.668 110.657 143.44C110.249 143.2 109.811 143.08 109.343 143.08C108.875 143.08 108.443 143.194 108.047 143.422C107.651 143.65 107.327 143.986 107.075 144.43C106.835 144.862 106.715 145.378 106.715 145.978C106.715 146.578 106.835 147.106 107.075 147.562C107.327 148.006 107.651 148.348 108.047 148.588C108.455 148.828 108.887 148.948 109.343 148.948C109.811 148.948 110.249 148.834 110.657 148.606C111.065 148.366 111.389 148.03 111.629 147.598C111.869 147.154 111.989 146.626 111.989 146.014ZM126.258 145.798C126.258 146.158 126.234 146.482 126.186 146.77H118.896C118.956 147.49 119.208 148.054 119.652 148.462C120.096 148.87 120.642 149.074 121.29 149.074C122.226 149.074 122.892 148.672 123.288 147.868H126.006C125.718 148.828 125.166 149.62 124.35 150.244C123.534 150.856 122.532 151.162 121.344 151.162C120.384 151.162 119.52 150.952 118.752 150.532C117.996 150.1 117.402 149.494 116.97 148.714C116.55 147.934 116.34 147.034 116.34 146.014C116.34 144.982 116.55 144.076 116.97 143.296C117.39 142.516 117.978 141.916 118.734 141.496C119.49 141.076 120.36 140.866 121.344 140.866C122.292 140.866 123.138 141.07 123.882 141.478C124.638 141.886 125.22 142.468 125.628 143.224C126.048 143.968 126.258 144.826 126.258 145.798ZM123.648 145.078C123.636 144.43 123.402 143.914 122.946 143.53C122.49 143.134 121.932 142.936 121.272 142.936C120.648 142.936 120.12 143.128 119.688 143.512C119.268 143.884 119.01 144.406 118.914 145.078H123.648ZM131.913 151.162C131.097 151.162 130.365 151.018 129.717 150.73C129.069 150.43 128.553 150.028 128.169 149.524C127.797 149.02 127.593 148.462 127.557 147.85H130.095C130.143 148.234 130.329 148.552 130.653 148.804C130.989 149.056 131.403 149.182 131.895 149.182C132.375 149.182 132.747 149.086 133.011 148.894C133.287 148.702 133.425 148.456 133.425 148.156C133.425 147.832 133.257 147.592 132.921 147.436C132.597 147.268 132.075 147.088 131.355 146.896C130.611 146.716 129.999 146.53 129.519 146.338C129.051 146.146 128.643 145.852 128.295 145.456C127.959 145.06 127.791 144.526 127.791 143.854C127.791 143.302 127.947 142.798 128.259 142.342C128.583 141.886 129.039 141.526 129.627 141.262C130.227 140.998 130.929 140.866 131.733 140.866C132.921 140.866 133.869 141.166 134.577 141.766C135.285 142.354 135.675 143.152 135.747 144.16H133.335C133.299 143.764 133.131 143.452 132.831 143.224C132.543 142.984 132.153 142.864 131.661 142.864C131.205 142.864 130.851 142.948 130.599 143.116C130.359 143.284 130.239 143.518 130.239 143.818C130.239 144.154 130.407 144.412 130.743 144.592C131.079 144.76 131.601 144.934 132.309 145.114C133.029 145.294 133.623 145.48 134.091 145.672C134.559 145.864 134.961 146.164 135.297 146.572C135.645 146.968 135.825 147.496 135.837 148.156C135.837 148.732 135.675 149.248 135.351 149.704C135.039 150.16 134.583 150.52 133.983 150.784C133.395 151.036 132.705 151.162 131.913 151.162ZM140.426 142.468C140.75 142.012 141.194 141.634 141.758 141.334C142.334 141.022 142.988 140.866 143.72 140.866C144.572 140.866 145.34 141.076 146.024 141.496C146.72 141.916 147.266 142.516 147.662 143.296C148.07 144.064 148.274 144.958 148.274 145.978C148.274 146.998 148.07 147.904 147.662 148.696C147.266 149.476 146.72 150.082 146.024 150.514C145.34 150.946 144.572 151.162 143.72 151.162C142.988 151.162 142.34 151.012 141.776 150.712C141.224 150.412 140.774 150.034 140.426 149.578V155.752H137.906V141.028H140.426V142.468ZM145.7 145.978C145.7 145.378 145.574 144.862 145.322 144.43C145.082 143.986 144.758 143.65 144.35 143.422C143.954 143.194 143.522 143.08 143.054 143.08C142.598 143.08 142.166 143.2 141.758 143.44C141.362 143.668 141.038 144.004 140.786 144.448C140.546 144.892 140.426 145.414 140.426 146.014C140.426 146.614 140.546 147.136 140.786 147.58C141.038 148.024 141.362 148.366 141.758 148.606C142.166 148.834 142.598 148.948 143.054 148.948C143.522 148.948 143.954 148.828 144.35 148.588C144.758 148.348 145.082 148.006 145.322 147.562C145.574 147.118 145.7 146.59 145.7 145.978ZM159.375 145.798C159.375 146.158 159.351 146.482 159.303 146.77H152.013C152.073 147.49 152.325 148.054 152.769 148.462C153.213 148.87 153.759 149.074 154.407 149.074C155.343 149.074 156.009 148.672 156.405 147.868H159.123C158.835 148.828 158.283 149.62 157.467 150.244C156.651 150.856 155.649 151.162 154.461 151.162C153.501 151.162 152.637 150.952 151.869 150.532C151.113 150.1 150.519 149.494 150.087 148.714C149.667 147.934 149.457 147.034 149.457 146.014C149.457 144.982 149.667 144.076 150.087 143.296C150.507 142.516 151.095 141.916 151.851 141.496C152.607 141.076 153.477 140.866 154.461 140.866C155.409 140.866 156.255 141.07 156.999 141.478C157.755 141.886 158.337 142.468 158.745 143.224C159.165 143.968 159.375 144.826 159.375 145.798ZM156.765 145.078C156.753 144.43 156.519 143.914 156.063 143.53C155.607 143.134 155.049 142.936 154.389 142.936C153.765 142.936 153.237 143.128 152.805 143.512C152.385 143.884 152.127 144.406 152.031 145.078H156.765ZM165.031 151.162C164.215 151.162 163.483 151.018 162.835 150.73C162.187 150.43 161.671 150.028 161.287 149.524C160.915 149.02 160.711 148.462 160.675 147.85H163.213C163.261 148.234 163.447 148.552 163.771 148.804C164.107 149.056 164.521 149.182 165.013 149.182C165.493 149.182 165.865 149.086 166.129 148.894C166.405 148.702 166.543 148.456 166.543 148.156C166.543 147.832 166.375 147.592 166.039 147.436C165.715 147.268 165.193 147.088 164.473 146.896C163.729 146.716 163.117 146.53 162.637 146.338C162.169 146.146 161.761 145.852 161.413 145.456C161.077 145.06 160.909 144.526 160.909 143.854C160.909 143.302 161.065 142.798 161.377 142.342C161.701 141.886 162.157 141.526 162.745 141.262C163.345 140.998 164.047 140.866 164.851 140.866C166.039 140.866 166.987 141.166 167.695 141.766C168.403 142.354 168.793 143.152 168.865 144.16H166.453C166.417 143.764 166.249 143.452 165.949 143.224C165.661 142.984 165.271 142.864 164.779 142.864C164.323 142.864 163.969 142.948 163.717 143.116C163.477 143.284 163.357 143.518 163.357 143.818C163.357 144.154 163.525 144.412 163.861 144.592C164.197 144.76 164.719 144.934 165.427 145.114C166.147 145.294 166.741 145.48 167.209 145.672C167.677 145.864 168.079 146.164 168.415 146.572C168.763 146.968 168.943 147.496 168.955 148.156C168.955 148.732 168.793 149.248 168.469 149.704C168.157 150.16 167.701 150.52 167.101 150.784C166.513 151.036 165.823 151.162 165.031 151.162ZM170.375 145.978C170.375 144.97 170.573 144.076 170.969 143.296C171.377 142.516 171.923 141.916 172.607 141.496C173.303 141.076 174.077 140.866 174.929 140.866C175.673 140.866 176.321 141.016 176.873 141.316C177.437 141.616 177.887 141.994 178.223 142.45V141.028H180.761V151H178.223V149.542C177.899 150.01 177.449 150.4 176.873 150.712C176.309 151.012 175.655 151.162 174.911 151.162C174.071 151.162 173.303 150.946 172.607 150.514C171.923 150.082 171.377 149.476 170.969 148.696C170.573 147.904 170.375 146.998 170.375 145.978ZM178.223 146.014C178.223 145.402 178.103 144.88 177.863 144.448C177.623 144.004 177.299 143.668 176.891 143.44C176.483 143.2 176.045 143.08 175.577 143.08C175.109 143.08 174.677 143.194 174.281 143.422C173.885 143.65 173.561 143.986 173.309 144.43C173.069 144.862 172.949 145.378 172.949 145.978C172.949 146.578 173.069 147.106 173.309 147.562C173.561 148.006 173.885 148.348 174.281 148.588C174.689 148.828 175.121 148.948 175.577 148.948C176.045 148.948 176.483 148.834 176.891 148.606C177.299 148.366 177.623 148.03 177.863 147.598C178.103 147.154 178.223 146.626 178.223 146.014ZM190.032 142.468C190.356 142.012 190.8 141.634 191.364 141.334C191.94 141.022 192.594 140.866 193.326 140.866C194.178 140.866 194.946 141.076 195.63 141.496C196.326 141.916 196.872 142.516 197.268 143.296C197.676 144.064 197.88 144.958 197.88 145.978C197.88 146.998 197.676 147.904 197.268 148.696C196.872 149.476 196.326 150.082 195.63 150.514C194.946 150.946 194.178 151.162 193.326 151.162C192.594 151.162 191.946 151.012 191.382 150.712C190.83 150.412 190.38 150.034 190.032 149.578V155.752H187.512V141.028H190.032V142.468ZM195.306 145.978C195.306 145.378 195.18 144.862 194.928 144.43C194.688 143.986 194.364 143.65 193.956 143.422C193.56 143.194 193.128 143.08 192.66 143.08C192.204 143.08 191.772 143.2 191.364 143.44C190.968 143.668 190.644 144.004 190.392 144.448C190.152 144.892 190.032 145.414 190.032 146.014C190.032 146.614 190.152 147.136 190.392 147.58C190.644 148.024 190.968 148.366 191.364 148.606C191.772 148.834 192.204 148.948 192.66 148.948C193.128 148.948 193.56 148.828 193.956 148.588C194.364 148.348 194.688 148.006 194.928 147.562C195.18 147.118 195.306 146.59 195.306 145.978ZM204.139 151.162C203.179 151.162 202.315 150.952 201.547 150.532C200.779 150.1 200.173 149.494 199.729 148.714C199.297 147.934 199.081 147.034 199.081 146.014C199.081 144.994 199.303 144.094 199.747 143.314C200.203 142.534 200.821 141.934 201.601 141.514C202.381 141.082 203.251 140.866 204.211 140.866C205.171 140.866 206.041 141.082 206.821 141.514C207.601 141.934 208.213 142.534 208.657 143.314C209.113 144.094 209.341 144.994 209.341 146.014C209.341 147.034 209.107 147.934 208.639 148.714C208.183 149.494 207.559 150.1 206.767 150.532C205.987 150.952 205.111 151.162 204.139 151.162ZM204.139 148.966C204.595 148.966 205.021 148.858 205.417 148.642C205.825 148.414 206.149 148.078 206.389 147.634C206.629 147.19 206.749 146.65 206.749 146.014C206.749 145.066 206.497 144.34 205.993 143.836C205.501 143.32 204.895 143.062 204.175 143.062C203.455 143.062 202.849 143.32 202.357 143.836C201.877 144.34 201.637 145.066 201.637 146.014C201.637 146.962 201.871 147.694 202.339 148.21C202.819 148.714 203.419 148.966 204.139 148.966ZM213.709 142.576C214.033 142.048 214.453 141.634 214.969 141.334C215.497 141.034 216.097 140.884 216.769 140.884V143.53H216.103C215.311 143.53 214.711 143.716 214.303 144.088C213.907 144.46 213.709 145.108 213.709 146.032V151H211.189V141.028H213.709V142.576ZM222.108 145.978C222.108 144.97 222.306 144.076 222.702 143.296C223.11 142.516 223.656 141.916 224.34 141.496C225.036 141.076 225.81 140.866 226.662 140.866C227.406 140.866 228.054 141.016 228.606 141.316C229.17 141.616 229.62 141.994 229.956 142.45V141.028H232.494V151H229.956V149.542C229.632 150.01 229.182 150.4 228.606 150.712C228.042 151.012 227.388 151.162 226.644 151.162C225.804 151.162 225.036 150.946 224.34 150.514C223.656 150.082 223.11 149.476 222.702 148.696C222.306 147.904 222.108 146.998 222.108 145.978ZM229.956 146.014C229.956 145.402 229.836 144.88 229.596 144.448C229.356 144.004 229.032 143.668 228.624 143.44C228.216 143.2 227.778 143.08 227.31 143.08C226.842 143.08 226.41 143.194 226.014 143.422C225.618 143.65 225.294 143.986 225.042 144.43C224.802 144.862 224.682 145.378 224.682 145.978C224.682 146.578 224.802 147.106 225.042 147.562C225.294 148.006 225.618 148.348 226.014 148.588C226.422 148.828 226.854 148.948 227.31 148.948C227.778 148.948 228.216 148.834 228.624 148.606C229.032 148.366 229.356 148.03 229.596 147.598C229.836 147.154 229.956 146.626 229.956 146.014ZM234.307 145.996C234.307 145 234.511 144.118 234.919 143.35C235.339 142.57 235.903 141.964 236.611 141.532C237.319 141.1 238.099 140.884 238.951 140.884C239.659 140.884 240.283 141.022 240.823 141.298C241.375 141.562 241.819 141.904 242.155 142.324V141.028H244.693V155.752H242.155V149.632C241.819 150.064 241.369 150.424 240.805 150.712C240.241 151 239.605 151.144 238.897 151.144C238.057 151.144 237.283 150.928 236.575 150.496C235.879 150.052 235.327 149.44 234.919 148.66C234.511 147.88 234.307 146.992 234.307 145.996ZM242.155 146.014C242.155 145.402 242.029 144.874 241.777 144.43C241.525 143.986 241.195 143.65 240.787 143.422C240.391 143.194 239.965 143.08 239.509 143.08C239.065 143.08 238.639 143.194 238.231 143.422C237.835 143.65 237.511 143.986 237.259 144.43C237.007 144.862 236.881 145.384 236.881 145.996C236.881 146.608 237.007 147.142 237.259 147.598C237.511 148.042 237.835 148.378 238.231 148.606C238.639 148.834 239.065 148.948 239.509 148.948C239.965 148.948 240.391 148.834 240.787 148.606C241.195 148.378 241.525 148.042 241.777 147.598C242.029 147.154 242.155 146.626 242.155 146.014ZM256.568 141.028V151H254.03V149.74C253.706 150.172 253.28 150.514 252.752 150.766C252.236 151.006 251.672 151.126 251.06 151.126C250.28 151.126 249.59 150.964 248.99 150.64C248.39 150.304 247.916 149.818 247.568 149.182C247.232 148.534 247.064 147.766 247.064 146.878V141.028H249.584V146.518C249.584 147.31 249.782 147.922 250.178 148.354C250.574 148.774 251.114 148.984 251.798 148.984C252.494 148.984 253.04 148.774 253.436 148.354C253.832 147.922 254.03 147.31 254.03 146.518V141.028H256.568ZM260.333 139.84C259.889 139.84 259.517 139.702 259.217 139.426C258.929 139.138 258.785 138.784 258.785 138.364C258.785 137.944 258.929 137.596 259.217 137.32C259.517 137.032 259.889 136.888 260.333 136.888C260.777 136.888 261.143 137.032 261.431 137.32C261.731 137.596 261.881 137.944 261.881 138.364C261.881 138.784 261.731 139.138 261.431 139.426C261.143 139.702 260.777 139.84 260.333 139.84ZM261.575 141.028V151H259.055V141.028H261.575ZM265.18 151.126C264.724 151.126 264.346 150.988 264.046 150.712C263.758 150.424 263.614 150.07 263.614 149.65C263.614 149.23 263.758 148.882 264.046 148.606C264.346 148.318 264.724 148.174 265.18 148.174C265.624 148.174 265.99 148.318 266.278 148.606C266.566 148.882 266.71 149.23 266.71 149.65C266.71 150.07 266.566 150.424 266.278 150.712C265.99 150.988 265.624 151.126 265.18 151.126ZM269.856 151.126C269.4 151.126 269.022 150.988 268.722 150.712C268.434 150.424 268.29 150.07 268.29 149.65C268.29 149.23 268.434 148.882 268.722 148.606C269.022 148.318 269.4 148.174 269.856 148.174C270.3 148.174 270.666 148.318 270.954 148.606C271.242 148.882 271.386 149.23 271.386 149.65C271.386 150.07 271.242 150.424 270.954 150.712C270.666 150.988 270.3 151.126 269.856 151.126ZM274.532 151.126C274.076 151.126 273.698 150.988 273.398 150.712C273.11 150.424 272.966 150.07 272.966 149.65C272.966 149.23 273.11 148.882 273.398 148.606C273.698 148.318 274.076 148.174 274.532 148.174C274.976 148.174 275.342 148.318 275.63 148.606C275.918 148.882 276.062 149.23 276.062 149.65C276.062 150.07 275.918 150.424 275.63 150.712C275.342 150.988 274.976 151.126 274.532 151.126Z" fill="#42C18C"/>
<path d="M201.052 93V96.8842" stroke="#42C18C" stroke-width="2.4" stroke-miterlimit="10" stroke-linecap="round"/>
<path d="M203.104 95H199" stroke="#42C18C" stroke-width="2.4" stroke-miterlimit="10" stroke-linecap="round"/>
<path d="M143.699 100.205H152.182C153.817 100.205 155.143 99.2007 155.143 97.9627C155.143 96.7253 153.817 95.7215 152.182 95.7215H151.787C150.152 95.7215 148.826 94.7182 148.826 93.4802C148.826 92.2422 150.152 91.2389 151.787 91.2389H170.022C171.657 91.2389 172.983 90.2356 172.983 88.9982C172.983 87.7597 171.657 86.757 170.022 86.757H148.108H103.317C101.681 86.757 100.355 87.7597 100.355 88.9982C100.355 90.2356 101.681 91.2389 103.317 91.2389H108.377C110.013 91.2389 111.339 92.2422 111.339 93.4802C111.339 94.7182 110.013 95.7215 108.377 95.7215H88.5011C86.8655 95.7215 85.54 96.7253 85.54 97.9627C85.54 99.2007 86.8655 100.205 88.5011 100.205H89.9845H143.699Z" fill="#42C18C"/>
<path d="M91.0911 86.1567C92.4622 86.1567 93.5736 87.2317 93.5736 88.5572C93.5736 89.8847 92.4622 90.9603 91.0911 90.9603H83.483C82.1119 90.9603 81 89.8847 81 88.5572C81 87.2317 82.1119 86.1567 83.483 86.1567H91.0911Z" fill="#42C18C"/>
<path d="M198.983 67.4227C198.799 58.8107 176.431 56.5026 163.184 56.5026C149.938 56.5026 127.57 58.8107 127.386 67.4227H127.369V78.5448C127.369 87.2242 149.883 89.5377 163.184 89.5377C176.486 89.5377 199 87.2111 199 78.4938V67.4227H198.983Z" fill="#FBB713"/>
<path opacity="0.35" d="M198.983 67.4227C198.799 58.8107 176.431 56.5026 163.184 56.5026C149.938 56.5026 127.57 58.8107 127.386 67.4227H127.369V78.5448C127.369 87.2242 149.883 89.5377 163.184 89.5377C176.486 89.5377 199 87.2111 199 78.4938V67.4227H198.983Z" fill="black"/>
<path d="M163.184 78.5426C149.883 78.5426 127.369 76.2237 127.369 67.5253C127.369 58.8248 149.883 56.5026 163.184 56.5026C176.486 56.5026 198.999 58.8248 198.999 67.5253C198.999 76.2237 176.486 78.5426 163.184 78.5426Z" fill="#FBB713"/>
<path d="M185.295 47.3208C185.111 38.7083 162.744 36.4013 149.497 36.4013C136.25 36.4013 113.883 38.7083 113.699 47.3208H113.682V58.4424C113.682 67.1218 136.196 69.4358 149.497 69.4358C162.799 69.4358 185.313 67.1087 185.313 58.3914V47.3208H185.295Z" fill="#FBB713"/>
<path opacity="0.35" d="M185.295 47.3208C185.111 38.7083 162.744 36.4013 149.497 36.4013C136.25 36.4013 113.883 38.7083 113.699 47.3208H113.682V58.4424C113.682 67.1218 136.196 69.4358 149.497 69.4358C162.799 69.4358 185.313 67.1087 185.313 58.3914V47.3208H185.295Z" fill="black"/>
<path d="M149.497 58.4402C136.196 58.4402 113.682 56.1208 113.682 47.4229C113.682 38.723 136.196 36.4013 149.497 36.4013C162.799 36.4013 185.313 38.723 185.313 47.4229C185.313 56.1208 162.799 58.4402 149.497 58.4402Z" fill="#FBB713"/>
<path d="M170.112 28.7155C169.928 20.1035 147.56 17.7954 134.313 17.7954C121.066 17.7954 98.6992 20.1035 98.5151 28.7155H98.4977V39.8371C98.4977 48.5169 121.011 50.8305 134.313 50.8305C147.615 50.8305 170.129 48.5034 170.129 39.7865V28.7155H170.112Z" fill="#FBB713"/>
<path opacity="0.35" d="M170.112 28.7155C169.928 20.1035 147.56 17.7954 134.313 17.7954C121.066 17.7954 98.6992 20.1035 98.5151 28.7155H98.4977V39.8371C98.4977 48.5169 121.011 50.8305 134.313 50.8305C147.615 50.8305 170.129 48.5034 170.129 39.7865V28.7155H170.112Z" fill="black"/>
<path d="M134.313 39.8349C121.011 39.8349 98.4977 37.5165 98.4977 28.8176C98.4977 20.1176 121.011 17.7954 134.313 17.7954C147.615 17.7954 170.129 20.1176 170.129 28.8176C170.129 37.5165 147.615 39.8349 134.313 39.8349Z" fill="#FBB713"/>
<path d="M107.444 33.2925C106.357 33.2925 105.477 32.412 105.477 31.3256C105.477 21.7673 127.713 21.0242 134.527 21.0242C135.615 21.0242 136.494 21.9048 136.494 22.9912C136.494 24.0765 135.615 24.957 134.527 24.957C120.678 24.957 109.411 27.8138 109.411 31.3256C109.411 32.412 108.531 33.2925 107.444 33.2925Z" fill="#EDEDED"/>
</svg>

