<svg width="45" height="56" viewBox="0 0 45 56" fill="none" xmlns="http://www.w3.org/2000/svg">
<path d="M37.4999 26.8333C37.4999 26.189 37.9196 25.6667 38.4374 25.6667C38.9552 25.6667 39.3749 26.189 39.3749 26.8333V43.1667C39.3749 46.3883 37.2762 49 34.6874 49H10.2864C7.69754 49 5.59888 46.3883 5.59888 43.1667V12.8333C5.59888 9.61167 7.69754 7 10.2864 7H23.4374C23.9552 7 24.3749 7.52233 24.3749 8.16667C24.3749 8.811 23.9552 9.33333 23.4374 9.33333H10.2864C8.73308 9.33333 7.47388 10.9003 7.47388 12.8333V43.1667C7.47388 45.0997 8.73308 46.6667 10.2864 46.6667H34.6874C36.2407 46.6667 37.4999 45.0997 37.4999 43.1667V26.8333ZM35.3503 7.34171L39.1003 12.0084C39.4664 12.464 39.4664 13.2027 39.1003 13.6583L24.1003 32.325C23.9245 32.5438 23.686 32.6667 23.4374 32.6667H19.6874C19.1696 32.6667 18.7499 32.1443 18.7499 31.5V26.8333C18.7499 26.5239 18.8487 26.2272 19.0245 26.0084L34.0245 7.34171C34.3906 6.8861 34.9842 6.8861 35.3503 7.34171ZM34.6874 9.81658L20.6249 27.3166V30.3333H23.0491L37.1116 12.8333L34.6874 9.81658Z" fill="#FFC107" stroke="#FFC107" stroke-width="2"/>
</svg>
