<svg width="165" height="56" viewBox="0 0 165 56" fill="none" xmlns="http://www.w3.org/2000/svg">
<path d="M164.72 26.6212H161.314V14.4824C161.314 11.5723 158.257 9.20474 154.501 9.20474H149.887L145.165 2.62876C144.446 1.62378 143.076 1 141.591 1C140.899 1 140.212 1.13829 139.606 1.39894L121.486 9.20458H101.246C97.4891 9.20458 94.4329 11.5721 94.4329 14.4822V50.7222C94.4329 53.6323 97.4891 55.9998 101.246 55.9998H154.501C158.257 55.9998 161.314 53.6323 161.314 50.7222V40.0791H164.72V26.6212ZM154.501 11.3157C156.599 11.3157 158.313 12.5506 158.543 14.1308H153.423L151.403 11.3157H154.501ZM140.932 3.244C141.571 2.96644 142.431 3.16057 142.783 3.65362L150.305 14.1298H115.659L140.932 3.244ZM158.588 50.7222C158.588 52.468 156.754 53.8889 154.5 53.8889H101.246C98.9921 53.8889 97.1579 52.468 97.1579 50.7222V14.4824C97.1579 12.7365 98.9921 11.3157 101.246 11.3157H116.586L110.051 14.1309H102.098C101.344 14.1309 100.735 14.6038 100.735 15.1865C100.735 15.7692 101.344 16.2421 102.098 16.2421H105.15H154.938H158.588V26.6222H148.624C143.996 26.6222 140.23 29.5397 140.23 33.1242V33.5782C140.23 37.1629 143.996 40.0803 148.624 40.0803H158.588V50.7222ZM161.995 37.9682H161.314H148.624C145.498 37.9682 142.955 35.9986 142.955 33.577V33.1231C142.955 30.7017 145.498 28.732 148.624 28.732H161.314H161.995V37.9682ZM152.797 33.4368C152.797 34.7246 151.451 35.7673 149.789 35.7673C148.126 35.7673 146.78 34.7244 146.78 33.4368C146.78 32.1491 148.126 31.1062 149.789 31.1062C151.451 31.1061 152.797 32.15 152.797 33.4368Z" fill="url(#paint0_linear)"/>
<path d="M30.0405 38.9144L25.4718 55.8075H20.3039L17.5078 44.6898L14.6117 55.8075H9.44387L5 38.9144H9.5687L12.0902 51.2112L15.2109 38.9144H19.9044L22.9003 51.2112L25.4468 38.9144H30.0405Z" fill="#29292E"/>
<path d="M31.3326 49.0695C31.3326 47.6898 31.5989 46.4786 32.1315 45.4358C32.6808 44.393 33.4214 43.5909 34.3535 43.0294C35.2855 42.4679 36.3257 42.1872 37.4742 42.1872C38.4561 42.1872 39.3133 42.3797 40.0456 42.7647C40.7946 43.1497 41.3688 43.6551 41.7682 44.2807V42.3797H46.0374V55.8075H41.7682V53.9064C41.3521 54.5321 40.7696 55.0374 40.0206 55.4225C39.2883 55.8075 38.4312 56 37.4492 56C36.3174 56 35.2855 55.7193 34.3535 55.1578C33.4214 54.5802 32.6808 53.7701 32.1315 52.7273C31.5989 51.6685 31.3326 50.4492 31.3326 49.0695ZM41.7682 49.0936C41.7682 48.0668 41.4687 47.2567 40.8695 46.6631C40.2869 46.0695 39.5713 45.7727 38.7224 45.7727C37.8736 45.7727 37.1496 46.0695 36.5504 46.6631C35.9679 47.2406 35.6766 48.0428 35.6766 49.0695C35.6766 50.0963 35.9679 50.9144 36.5504 51.5241C37.1496 52.1176 37.8736 52.4144 38.7224 52.4144C39.5713 52.4144 40.2869 52.1176 40.8695 51.5241C41.4687 50.9305 41.7682 50.1203 41.7682 49.0936Z" fill="#29292E"/>
<path d="M53.395 38V55.8075H49.1259V38H53.395Z" fill="#29292E"/>
<path d="M60.7579 38V55.8075H56.4888V38H60.7579Z" fill="#29292E"/>
<path d="M76.9835 48.877C76.9835 49.262 76.9586 49.6631 76.9086 50.0802H67.247C67.3135 50.9144 67.5882 51.5561 68.0708 52.0053C68.5701 52.4385 69.1776 52.6551 69.8933 52.6551C70.9585 52.6551 71.6992 52.2219 72.1153 51.3556H76.659C76.426 52.238 76.0016 53.0321 75.3857 53.738C74.7866 54.4439 74.0293 54.9973 73.1139 55.3984C72.1985 55.7995 71.1749 56 70.0431 56C68.6783 56 67.4633 55.7193 66.3981 55.1578C65.3329 54.5963 64.5008 53.7941 63.9016 52.7513C63.3024 51.7086 63.0028 50.4893 63.0028 49.0936C63.0028 47.6979 63.2941 46.4786 63.8766 45.4358C64.4758 44.393 65.308 43.5909 66.3732 43.0294C67.4384 42.4679 68.6617 42.1872 70.0431 42.1872C71.3913 42.1872 72.5896 42.4599 73.6382 43.0053C74.6867 43.5508 75.5023 44.3289 76.0848 45.3396C76.684 46.3503 76.9835 47.5294 76.9835 48.877ZM72.6146 47.7941C72.6146 47.0882 72.3649 46.5267 71.8656 46.1096C71.3663 45.6925 70.7421 45.484 69.9932 45.484C69.2775 45.484 68.67 45.6845 68.1707 46.0856C67.688 46.4866 67.3884 47.0561 67.2719 47.7941H72.6146Z" fill="#29292E"/>
<path d="M87 52.3182V55.8075H84.828C83.2801 55.8075 82.0735 55.4465 81.208 54.7246C80.3425 53.9866 79.9098 52.7914 79.9098 51.139V45.7968H78.2121V42.3797H79.9098V39.107H84.1789V42.3797H86.975V45.7968H84.1789V51.1872C84.1789 51.5882 84.2788 51.877 84.4785 52.0535C84.6782 52.2299 85.0111 52.3182 85.4771 52.3182H87Z" fill="#29292E"/>
<path d="M17.01 10.94V15.05H11.43V32H6.3V15.05H0.72V10.94H17.01ZM24.7146 18.05C25.3146 17.13 26.0646 16.41 26.9646 15.89C27.8646 15.35 28.8646 15.08 29.9646 15.08V20.51H28.5546C27.2746 20.51 26.3146 20.79 25.6746 21.35C25.0346 21.89 24.7146 22.85 24.7146 24.23V32H19.5846V15.26H24.7146V18.05ZM49.5166 15.26L39.0166 39.95H33.4966L37.3366 31.43L30.5266 15.26H36.2566L40.1266 25.73L43.9666 15.26H49.5166ZM56.5017 17.63C56.9817 16.85 57.6717 16.22 58.5717 15.74C59.4717 15.26 60.5017 15.02 61.6617 15.02C63.0417 15.02 64.2917 15.37 65.4117 16.07C66.5317 16.77 67.4117 17.77 68.0517 19.07C68.7117 20.37 69.0417 21.88 69.0417 23.6C69.0417 25.32 68.7117 26.84 68.0517 28.16C67.4117 29.46 66.5317 30.47 65.4117 31.19C64.2917 31.89 63.0417 32.24 61.6617 32.24C60.4817 32.24 59.4517 32.01 58.5717 31.55C57.6917 31.07 57.0017 30.44 56.5017 29.66V32H51.3717V9.8H56.5017V17.63ZM63.8217 23.6C63.8217 22.32 63.4617 21.32 62.7417 20.6C62.0417 19.86 61.1717 19.49 60.1317 19.49C59.1117 19.49 58.2417 19.86 57.5217 20.6C56.8217 21.34 56.4717 22.35 56.4717 23.63C56.4717 24.91 56.8217 25.92 57.5217 26.66C58.2417 27.4 59.1117 27.77 60.1317 27.77C61.1517 27.77 62.0217 27.4 62.7417 26.66C63.4617 25.9 63.8217 24.88 63.8217 23.6ZM87.513 23.36C87.513 23.84 87.483 24.34 87.423 24.86H75.813C75.893 25.9 76.223 26.7 76.803 27.26C77.403 27.8 78.133 28.07 78.993 28.07C80.273 28.07 81.163 27.53 81.663 26.45H87.123C86.843 27.55 86.333 28.54 85.593 29.42C84.873 30.3 83.963 30.99 82.863 31.49C81.763 31.99 80.533 32.24 79.173 32.24C77.533 32.24 76.073 31.89 74.793 31.19C73.513 30.49 72.513 29.49 71.793 28.19C71.073 26.89 70.713 25.37 70.713 23.63C70.713 21.89 71.063 20.37 71.763 19.07C72.483 17.77 73.483 16.77 74.763 16.07C76.043 15.37 77.513 15.02 79.173 15.02C80.793 15.02 82.233 15.36 83.493 16.04C84.753 16.72 85.733 17.69 86.433 18.95C87.153 20.21 87.513 21.68 87.513 23.36ZM82.263 22.01C82.263 21.13 81.963 20.43 81.363 19.91C80.763 19.39 80.013 19.13 79.113 19.13C78.253 19.13 77.523 19.38 76.923 19.88C76.343 20.38 75.983 21.09 75.843 22.01H82.263Z" fill="#1F6B52"/>
<defs>
<linearGradient id="paint0_linear" x1="129.576" y1="1" x2="129.576" y2="55.9998" gradientUnits="userSpaceOnUse">
<stop stop-color="#1F6B52"/>
<stop offset="1" stop-color="#00B060"/>
</linearGradient>
</defs>
</svg>
