<svg width="164" height="137" viewBox="0 0 164 137" fill="none" xmlns="http://www.w3.org/2000/svg">
<path d="M163.354 63.82H155.485V33.5835C155.485 26.3345 148.425 20.4373 139.748 20.4373H129.091L118.185 4.0571C116.523 1.55378 113.36 0 109.929 0C108.33 0 106.744 0.344467 105.343 0.993717L63.4888 20.4369H16.737C8.05949 20.4369 1 26.3341 1 33.5831V123.853C1 131.102 8.05949 137 16.737 137H139.748C148.425 137 155.485 131.102 155.485 123.853V97.3425H163.354V63.82ZM139.748 25.6955C144.595 25.6955 148.554 28.7716 149.086 32.7076H137.258L132.593 25.6955H139.748ZM108.406 5.58961C109.882 4.89822 111.868 5.38178 112.683 6.60992L130.057 32.7051H50.0305L108.406 5.58961ZM149.19 123.853C149.19 128.202 144.953 131.741 139.747 131.741H16.737C11.5312 131.741 7.29453 128.202 7.29453 123.853V33.5835C7.29453 29.2347 11.5312 25.6955 16.737 25.6955H52.1706L37.0756 32.708H18.7043C16.9638 32.708 15.5568 33.8858 15.5568 35.3373C15.5568 36.7888 16.9638 37.9666 18.7043 37.9666H25.7545H140.758H149.19V63.8225H126.173C115.484 63.8225 106.785 71.0898 106.785 80.0186V81.1493C106.785 90.0785 115.485 97.3454 126.173 97.3454H149.19V123.853ZM157.059 92.0843H155.485H126.173C118.953 92.0843 113.08 87.1783 113.08 81.1465V80.0157C113.08 73.9843 118.952 69.0779 126.173 69.0779H155.485H157.059V92.0843ZM135.813 80.7971C135.813 84.0049 132.704 86.6023 128.864 86.6023C125.024 86.6023 121.915 84.0045 121.915 80.7971C121.915 77.5897 125.025 74.9919 128.864 74.9919C132.704 74.9915 135.813 77.5917 135.813 80.7971Z" fill="url(#paint0_linear)"/>
<path d="M52.0338 101.321L45.4594 125.722H38.0227L33.999 109.663L29.8315 125.722H22.3948L16 101.321H22.5745L26.203 119.083L30.6938 101.321H37.4479L41.759 119.083L45.4234 101.321H52.0338Z" fill="#29292E"/>
<path d="M53.8933 115.989C53.8933 113.996 54.2765 112.247 55.0429 110.741C55.8333 109.234 56.8991 108.076 58.2403 107.265C59.5816 106.454 61.0785 106.048 62.7311 106.048C64.1442 106.048 65.3777 106.326 66.4315 106.882C67.5093 107.439 68.3356 108.168 68.9104 109.072V106.326H75.0537V125.722H68.9104V122.976C68.3116 123.88 67.4733 124.61 66.3956 125.166C65.3417 125.722 64.1083 126 62.6952 126C61.0665 126 59.5816 125.594 58.2403 124.783C56.8991 123.949 55.8333 122.779 55.0429 121.273C54.2765 119.743 53.8933 117.982 53.8933 115.989ZM68.9104 116.024C68.9104 114.541 68.4793 113.371 67.6171 112.513C66.7788 111.656 65.7489 111.227 64.5274 111.227C63.3059 111.227 62.2641 111.656 61.4018 112.513C60.5636 113.348 60.1444 114.506 60.1444 115.989C60.1444 117.472 60.5636 118.654 61.4018 119.535C62.2641 120.392 63.3059 120.821 64.5274 120.821C65.7489 120.821 66.7788 120.392 67.6171 119.535C68.4793 118.677 68.9104 117.507 68.9104 116.024Z" fill="#29292E"/>
<path d="M85.6415 100V125.722H79.4982V100H85.6415Z" fill="#29292E"/>
<path d="M96.2369 100V125.722H90.0936V100H96.2369Z" fill="#29292E"/>
<path d="M119.586 115.711C119.586 116.267 119.55 116.847 119.478 117.449H105.575C105.671 118.654 106.066 119.581 106.76 120.23C107.479 120.856 108.353 121.168 109.383 121.168C110.916 121.168 111.982 120.543 112.58 119.291H119.119C118.784 120.566 118.173 121.713 117.287 122.733C116.425 123.752 115.335 124.552 114.018 125.131C112.7 125.71 111.227 126 109.599 126C107.635 126 105.886 125.594 104.353 124.783C102.821 123.972 101.623 122.814 100.761 121.307C99.8986 119.801 99.4675 118.04 99.4675 116.024C99.4675 114.008 99.8866 112.247 100.725 110.741C101.587 109.234 102.785 108.076 104.317 107.265C105.85 106.454 107.611 106.048 109.599 106.048C111.539 106.048 113.263 106.442 114.772 107.23C116.281 108.018 117.454 109.142 118.293 110.602C119.155 112.061 119.586 113.765 119.586 115.711ZM113.299 114.147C113.299 113.127 112.94 112.316 112.221 111.714C111.503 111.111 110.605 110.81 109.527 110.81C108.497 110.81 107.623 111.1 106.904 111.679C106.21 112.258 105.778 113.081 105.611 114.147H113.299Z" fill="#29292E"/>
<path d="M134 120.682V125.722H130.874C128.647 125.722 126.911 125.201 125.665 124.158C124.42 123.092 123.797 121.365 123.797 118.979V111.262H121.354V106.326H123.797V101.599H129.94V106.326H133.964V111.262H129.94V119.048C129.94 119.627 130.084 120.045 130.371 120.299C130.659 120.554 131.138 120.682 131.809 120.682H134Z" fill="#29292E"/>
<path d="M29.01 67.94V72.05H23.43V89H18.3V72.05H12.72V67.94H29.01ZM36.7146 75.05C37.3146 74.13 38.0646 73.41 38.9646 72.89C39.8646 72.35 40.8646 72.08 41.9646 72.08V77.51H40.5546C39.2746 77.51 38.3146 77.79 37.6746 78.35C37.0346 78.89 36.7146 79.85 36.7146 81.23V89H31.5846V72.26H36.7146V75.05ZM61.5166 72.26L51.0166 96.95H45.4966L49.3366 88.43L42.5266 72.26H48.2566L52.1266 82.73L55.9666 72.26H61.5166ZM68.5017 74.63C68.9817 73.85 69.6717 73.22 70.5717 72.74C71.4717 72.26 72.5017 72.02 73.6617 72.02C75.0417 72.02 76.2917 72.37 77.4117 73.07C78.5317 73.77 79.4117 74.77 80.0517 76.07C80.7117 77.37 81.0417 78.88 81.0417 80.6C81.0417 82.32 80.7117 83.84 80.0517 85.16C79.4117 86.46 78.5317 87.47 77.4117 88.19C76.2917 88.89 75.0417 89.24 73.6617 89.24C72.4817 89.24 71.4517 89.01 70.5717 88.55C69.6917 88.07 69.0017 87.44 68.5017 86.66V89H63.3717V66.8H68.5017V74.63ZM75.8217 80.6C75.8217 79.32 75.4617 78.32 74.7417 77.6C74.0417 76.86 73.1717 76.49 72.1317 76.49C71.1117 76.49 70.2417 76.86 69.5217 77.6C68.8217 78.34 68.4717 79.35 68.4717 80.63C68.4717 81.91 68.8217 82.92 69.5217 83.66C70.2417 84.4 71.1117 84.77 72.1317 84.77C73.1517 84.77 74.0217 84.4 74.7417 83.66C75.4617 82.9 75.8217 81.88 75.8217 80.6ZM99.513 80.36C99.513 80.84 99.483 81.34 99.423 81.86H87.813C87.893 82.9 88.223 83.7 88.803 84.26C89.403 84.8 90.133 85.07 90.993 85.07C92.273 85.07 93.163 84.53 93.663 83.45H99.123C98.843 84.55 98.333 85.54 97.593 86.42C96.873 87.3 95.963 87.99 94.863 88.49C93.763 88.99 92.533 89.24 91.173 89.24C89.533 89.24 88.073 88.89 86.793 88.19C85.513 87.49 84.513 86.49 83.793 85.19C83.073 83.89 82.713 82.37 82.713 80.63C82.713 78.89 83.063 77.37 83.763 76.07C84.483 74.77 85.483 73.77 86.763 73.07C88.043 72.37 89.513 72.02 91.173 72.02C92.793 72.02 94.233 72.36 95.493 73.04C96.753 73.72 97.733 74.69 98.433 75.95C99.153 77.21 99.513 78.68 99.513 80.36ZM94.263 79.01C94.263 78.13 93.963 77.43 93.363 76.91C92.763 76.39 92.013 76.13 91.113 76.13C90.253 76.13 89.523 76.38 88.923 76.88C88.343 77.38 87.983 78.09 87.843 79.01H94.263Z" fill="#1F6B52"/>
<defs>
<linearGradient id="paint0_linear" x1="82.1768" y1="0" x2="82.1768" y2="137" gradientUnits="userSpaceOnUse">
<stop stop-color="#1F6B52"/>
<stop offset="1" stop-color="#00B060"/>
</linearGradient>
</defs>
</svg>
